M48
;Layer_Color=9474304
;FILE_FORMAT=2:5
INCH,LZ
;TYPE=PLATED
T2F00S00C0.02800
T3F00S00C0.05906
T4F00S00C0.15748
%
T02
X0291956Y0099287
X02558Y00908
X02335Y00712
X02138Y00766
X0194Y00749
X01908Y00822
X01824Y0087
X01513Y00791
X01423Y00616
X01663Y00436
X01753Y00161
X02094Y00489
X02327Y00291
X02205Y00983
X01405Y01065
X01459Y01221
X00418Y01082
X00226Y01024
X00229Y00914
X00222Y0081
X00758Y01771
X01125Y01925
X02216Y01411
X02513Y01586
T03
X03062Y00875
T04
X03043Y00115
X00101
Y02334
X03043
M30
