G04*
G04 #@! TF.GenerationSoftware,Altium Limited,Altium Designer,22.0.2 (36)*
G04*
G04 Layer_Physical_Order=2*
G04 Layer_Color=16711680*
%FSLAX25Y25*%
%MOIN*%
G70*
G04*
G04 #@! TF.SameCoordinates,5FA20498-FCA4-4C69-A915-C1027814B975*
G04*
G04*
G04 #@! TF.FilePolarity,Positive*
G04*
G01*
G75*
%ADD12C,0.01000*%
%ADD31R,0.07874X0.07874*%
%ADD62C,0.01500*%
%ADD63O,0.06299X0.03543*%
%ADD64C,0.05000*%
G36*
X313802Y243699D02*
X313802Y1001D01*
X312799Y-1D01*
X1402Y-1D01*
X-1Y1402D01*
Y243299D01*
X1501Y244801D01*
X312699D01*
X313802Y243699D01*
D02*
G37*
%LPC*%
G36*
X305154Y242074D02*
X303446D01*
X301770Y241741D01*
X300191Y241087D01*
X298771Y240138D01*
X297563Y238929D01*
X296613Y237509D01*
X295959Y235930D01*
X295626Y234254D01*
Y232546D01*
X295959Y230870D01*
X296613Y229291D01*
X297563Y227871D01*
X298771Y226662D01*
X300191Y225713D01*
X301770Y225059D01*
X303446Y224726D01*
X305154D01*
X306830Y225059D01*
X308409Y225713D01*
X309829Y226662D01*
X311037Y227871D01*
X311987Y229291D01*
X312641Y230870D01*
X312974Y232546D01*
Y234254D01*
X312641Y235930D01*
X311987Y237509D01*
X311037Y238929D01*
X309829Y240138D01*
X308409Y241087D01*
X306830Y241741D01*
X305154Y242074D01*
D02*
G37*
G36*
X10954D02*
X9246D01*
X7570Y241741D01*
X5991Y241087D01*
X4571Y240138D01*
X3362Y238929D01*
X2413Y237509D01*
X1759Y235930D01*
X1426Y234254D01*
Y232546D01*
X1759Y230870D01*
X2413Y229291D01*
X3362Y227871D01*
X4571Y226662D01*
X5991Y225713D01*
X7570Y225059D01*
X9246Y224726D01*
X10954D01*
X12630Y225059D01*
X14209Y225713D01*
X15629Y226662D01*
X16838Y227871D01*
X17787Y229291D01*
X18441Y230870D01*
X18774Y232546D01*
Y234254D01*
X18441Y235930D01*
X17787Y237509D01*
X16838Y238929D01*
X15629Y240138D01*
X14209Y241087D01*
X12630Y241741D01*
X10954Y242074D01*
D02*
G37*
G36*
X307384Y164910D02*
X304628D01*
X303957Y164822D01*
X303331Y164563D01*
X302794Y164151D01*
X302382Y163613D01*
X302123Y162988D01*
X302034Y162317D01*
X302123Y161645D01*
X302382Y161020D01*
X302794Y160482D01*
X303331Y160070D01*
X303957Y159811D01*
X304628Y159723D01*
X307384D01*
X308056Y159811D01*
X308681Y160070D01*
X309218Y160482D01*
X309631Y161020D01*
X309890Y161645D01*
X309978Y162317D01*
X309890Y162988D01*
X309631Y163613D01*
X309218Y164151D01*
X308681Y164563D01*
X308056Y164822D01*
X307384Y164910D01*
D02*
G37*
G36*
X251734Y161900D02*
X250866D01*
X250026Y161675D01*
X249274Y161241D01*
X248659Y160626D01*
X248225Y159874D01*
X248000Y159034D01*
Y158166D01*
X248133Y157668D01*
X219383Y128918D01*
X219040Y128405D01*
X218920Y127800D01*
Y101198D01*
X218474Y100941D01*
X217859Y100326D01*
X217425Y99574D01*
X217200Y98734D01*
Y97865D01*
X217425Y97026D01*
X217859Y96274D01*
X218474Y95659D01*
X218920Y95402D01*
Y52555D01*
X211545Y45180D01*
X210200D01*
X210134Y45680D01*
X210674Y45825D01*
X211426Y46259D01*
X212041Y46874D01*
X212475Y47626D01*
X212700Y48466D01*
Y49334D01*
X212475Y50174D01*
X212041Y50926D01*
X211426Y51541D01*
X210674Y51975D01*
X209835Y52200D01*
X208965D01*
X208184Y51991D01*
X195326Y64849D01*
Y71855D01*
X196026Y72259D01*
X196641Y72874D01*
X197075Y73626D01*
X197300Y74466D01*
Y75335D01*
X197075Y76174D01*
X196641Y76926D01*
X196026Y77541D01*
X195274Y77975D01*
X194434Y78200D01*
X193566D01*
X192726Y77975D01*
X191974Y77541D01*
X191359Y76926D01*
X190925Y76174D01*
X190700Y75335D01*
Y74466D01*
X190925Y73626D01*
X191359Y72874D01*
X191974Y72259D01*
X192675Y71855D01*
Y64300D01*
X192775Y63793D01*
X193063Y63363D01*
X206309Y50116D01*
X206100Y49334D01*
Y48466D01*
X206325Y47626D01*
X206759Y46874D01*
X207374Y46259D01*
X208126Y45825D01*
X208666Y45680D01*
X208600Y45180D01*
X169198D01*
X168941Y45626D01*
X168326Y46241D01*
X167574Y46675D01*
X166734Y46900D01*
X165866D01*
X165026Y46675D01*
X164274Y46241D01*
X163659Y45626D01*
X163225Y44874D01*
X163000Y44034D01*
Y43166D01*
X163225Y42326D01*
X163659Y41574D01*
X164274Y40959D01*
X165026Y40525D01*
X165866Y40300D01*
X166734D01*
X167232Y40433D01*
X173720Y33945D01*
Y18998D01*
X173274Y18741D01*
X172659Y18126D01*
X172225Y17374D01*
X172000Y16534D01*
Y15665D01*
X172225Y14826D01*
X172659Y14074D01*
X173274Y13459D01*
X174026Y13025D01*
X174866Y12800D01*
X175734D01*
X176574Y13025D01*
X177326Y13459D01*
X177941Y14074D01*
X178375Y14826D01*
X178600Y15665D01*
Y16534D01*
X178375Y17374D01*
X177941Y18126D01*
X177326Y18741D01*
X176880Y18998D01*
Y34600D01*
X176760Y35205D01*
X176418Y35717D01*
X170577Y41558D01*
X170769Y42020D01*
X212200D01*
X212805Y42140D01*
X213317Y42483D01*
X221618Y50783D01*
X221960Y51295D01*
X222080Y51900D01*
Y95402D01*
X222526Y95659D01*
X223141Y96274D01*
X223575Y97026D01*
X223800Y97865D01*
Y98734D01*
X223575Y99574D01*
X223141Y100326D01*
X222526Y100941D01*
X222080Y101198D01*
Y127145D01*
X250368Y155433D01*
X250866Y155300D01*
X251734D01*
X252574Y155525D01*
X253326Y155959D01*
X253941Y156574D01*
X254375Y157326D01*
X254600Y158166D01*
Y159034D01*
X254375Y159874D01*
X253941Y160626D01*
X253326Y161241D01*
X252574Y161675D01*
X251734Y161900D01*
D02*
G37*
G36*
X112934Y195800D02*
X112066D01*
X111226Y195575D01*
X110474Y195141D01*
X109859Y194526D01*
X109425Y193774D01*
X109200Y192934D01*
Y192066D01*
X109425Y191226D01*
X109859Y190474D01*
X110474Y189859D01*
X111226Y189425D01*
X112066Y189200D01*
X112934D01*
X113774Y189425D01*
X114526Y189859D01*
X115141Y190474D01*
X115398Y190920D01*
X179245D01*
X220020Y150145D01*
Y143998D01*
X219574Y143741D01*
X218959Y143126D01*
X218525Y142374D01*
X218300Y141534D01*
Y140666D01*
X218525Y139826D01*
X218959Y139074D01*
X219574Y138459D01*
X220326Y138025D01*
X221165Y137800D01*
X222035D01*
X222874Y138025D01*
X223626Y138459D01*
X224241Y139074D01*
X224675Y139826D01*
X224900Y140666D01*
Y141534D01*
X224675Y142374D01*
X224241Y143126D01*
X223626Y143741D01*
X223180Y143998D01*
Y150800D01*
X223060Y151405D01*
X222717Y151918D01*
X181017Y193617D01*
X180505Y193960D01*
X179900Y194080D01*
X115398D01*
X115141Y194526D01*
X114526Y195141D01*
X113774Y195575D01*
X112934Y195800D01*
D02*
G37*
G36*
X307384Y138926D02*
X304628D01*
X303957Y138838D01*
X303331Y138579D01*
X302794Y138166D01*
X302382Y137629D01*
X302123Y137004D01*
X302034Y136332D01*
X302123Y135661D01*
X302382Y135035D01*
X302794Y134498D01*
X303331Y134086D01*
X303957Y133827D01*
X304628Y133738D01*
X307384D01*
X308056Y133827D01*
X308681Y134086D01*
X309218Y134498D01*
X309631Y135035D01*
X309890Y135661D01*
X309978Y136332D01*
X309890Y137004D01*
X309631Y137629D01*
X309218Y138166D01*
X308681Y138579D01*
X308056Y138838D01*
X307384Y138926D01*
D02*
G37*
G36*
X146334Y125400D02*
X145466D01*
X144626Y125175D01*
X143874Y124741D01*
X143259Y124126D01*
X142825Y123374D01*
X142600Y122534D01*
Y121666D01*
X142809Y120884D01*
X130851Y108925D01*
X45022D01*
X44875Y109474D01*
X44441Y110226D01*
X43826Y110841D01*
X43074Y111275D01*
X42234Y111500D01*
X41366D01*
X40526Y111275D01*
X39774Y110841D01*
X39159Y110226D01*
X38725Y109474D01*
X38500Y108634D01*
Y107766D01*
X38725Y106926D01*
X39159Y106174D01*
X39774Y105559D01*
X40526Y105125D01*
X41366Y104900D01*
X42234D01*
X43074Y105125D01*
X43826Y105559D01*
X44441Y106174D01*
X44499Y106274D01*
X131400D01*
X131907Y106375D01*
X132337Y106663D01*
X144684Y119009D01*
X145466Y118800D01*
X146334D01*
X147174Y119025D01*
X147926Y119459D01*
X148541Y120074D01*
X148975Y120826D01*
X149200Y121666D01*
Y122534D01*
X148975Y123374D01*
X148541Y124126D01*
X147926Y124741D01*
X147174Y125175D01*
X146334Y125400D01*
D02*
G37*
G36*
X140934Y109800D02*
X140066D01*
X139226Y109575D01*
X138474Y109141D01*
X137859Y108526D01*
X137425Y107774D01*
X137200Y106934D01*
Y106066D01*
X137333Y105568D01*
X135745Y103980D01*
X25498D01*
X25241Y104426D01*
X24626Y105041D01*
X23874Y105475D01*
X23034Y105700D01*
X22165D01*
X21326Y105475D01*
X20574Y105041D01*
X19959Y104426D01*
X19525Y103674D01*
X19300Y102834D01*
Y101965D01*
X19525Y101126D01*
X19959Y100374D01*
X20574Y99759D01*
X21326Y99325D01*
X22165Y99100D01*
X23034D01*
X23874Y99325D01*
X24626Y99759D01*
X25241Y100374D01*
X25498Y100820D01*
X136400D01*
X137005Y100940D01*
X137517Y101283D01*
X139568Y103333D01*
X140066Y103200D01*
X140934D01*
X141774Y103425D01*
X142526Y103859D01*
X143141Y104474D01*
X143575Y105226D01*
X143800Y106066D01*
Y106934D01*
X143575Y107774D01*
X143141Y108526D01*
X142526Y109141D01*
X141774Y109575D01*
X140934Y109800D01*
D02*
G37*
G36*
X292391Y102587D02*
X291522D01*
X290683Y102362D01*
X289930Y101928D01*
X289316Y101313D01*
X288881Y100561D01*
X288656Y99721D01*
Y98853D01*
X288866Y98071D01*
X282920Y92125D01*
X258845D01*
X258441Y92826D01*
X257826Y93441D01*
X257074Y93875D01*
X256235Y94100D01*
X255365D01*
X254526Y93875D01*
X253774Y93441D01*
X253159Y92826D01*
X252725Y92074D01*
X252500Y91234D01*
Y90365D01*
X252725Y89526D01*
X253159Y88774D01*
X253774Y88159D01*
X254526Y87725D01*
X255365Y87500D01*
X256235D01*
X257074Y87725D01*
X257826Y88159D01*
X258441Y88774D01*
X258845Y89474D01*
X283469D01*
X283976Y89575D01*
X284406Y89863D01*
X290740Y96197D01*
X291522Y95987D01*
X292391D01*
X293230Y96212D01*
X293983Y96646D01*
X294597Y97261D01*
X295031Y98013D01*
X295256Y98853D01*
Y99721D01*
X295031Y100561D01*
X294597Y101313D01*
X293983Y101928D01*
X293230Y102362D01*
X292391Y102587D01*
D02*
G37*
G36*
X311137Y92437D02*
X306700D01*
Y88000D01*
X311137D01*
Y92437D01*
D02*
G37*
G36*
X305700D02*
X301263D01*
Y88000D01*
X305700D01*
Y92437D01*
D02*
G37*
G36*
X23335Y94700D02*
X22466D01*
X21626Y94475D01*
X20874Y94041D01*
X20259Y93426D01*
X19825Y92674D01*
X19600Y91834D01*
Y90965D01*
X19825Y90126D01*
X20259Y89374D01*
X20874Y88759D01*
X21626Y88325D01*
X22466Y88100D01*
X23335D01*
X24116Y88309D01*
X26363Y86063D01*
X26793Y85775D01*
X27300Y85675D01*
X179355D01*
X179759Y84974D01*
X180374Y84359D01*
X180952Y84026D01*
X180818Y83526D01*
X170238D01*
X169926Y83837D01*
X169496Y84125D01*
X168989Y84225D01*
X25182D01*
X24675Y84125D01*
X24245Y83837D01*
X24114Y83706D01*
X23474Y84075D01*
X22635Y84300D01*
X21766D01*
X20926Y84075D01*
X20174Y83641D01*
X19559Y83026D01*
X19125Y82274D01*
X18900Y81435D01*
Y80566D01*
X19125Y79726D01*
X19559Y78974D01*
X20174Y78359D01*
X20926Y77925D01*
X21766Y77700D01*
X22635D01*
X23474Y77925D01*
X24226Y78359D01*
X24841Y78974D01*
X25275Y79726D01*
X25500Y80566D01*
Y81343D01*
X25731Y81574D01*
X148474D01*
X148510Y81486D01*
X148629Y81075D01*
X148225Y80374D01*
X148000Y79535D01*
Y78666D01*
X148209Y77884D01*
X141363Y71037D01*
X141075Y70607D01*
X140974Y70100D01*
Y64645D01*
X140274Y64241D01*
X139659Y63626D01*
X139225Y62874D01*
X139000Y62034D01*
Y61165D01*
X139225Y60326D01*
X139659Y59574D01*
X140274Y58959D01*
X141026Y58525D01*
X141866Y58300D01*
X142734D01*
X143574Y58525D01*
X144326Y58959D01*
X144941Y59574D01*
X145375Y60326D01*
X145600Y61165D01*
Y62034D01*
X145375Y62874D01*
X144941Y63626D01*
X144326Y64241D01*
X143625Y64645D01*
Y69551D01*
X150084Y76009D01*
X150866Y75800D01*
X151734D01*
X152574Y76025D01*
X153326Y76459D01*
X153941Y77074D01*
X154375Y77826D01*
X154600Y78666D01*
Y79535D01*
X154375Y80374D01*
X153971Y81075D01*
X154090Y81486D01*
X154126Y81574D01*
X168440D01*
X168752Y81263D01*
X169182Y80975D01*
X169689Y80875D01*
X187755D01*
X188159Y80174D01*
X188774Y79559D01*
X189526Y79125D01*
X190366Y78900D01*
X191234D01*
X192074Y79125D01*
X192826Y79559D01*
X193441Y80174D01*
X193875Y80926D01*
X194100Y81766D01*
Y82635D01*
X193875Y83474D01*
X193441Y84226D01*
X192826Y84841D01*
X192074Y85275D01*
X191234Y85500D01*
X190366D01*
X189526Y85275D01*
X188774Y84841D01*
X188159Y84226D01*
X187755Y83526D01*
X183982D01*
X183848Y84026D01*
X184426Y84359D01*
X185041Y84974D01*
X185475Y85726D01*
X185700Y86566D01*
Y87435D01*
X185475Y88274D01*
X185041Y89026D01*
X184426Y89641D01*
X183674Y90075D01*
X182834Y90300D01*
X181966D01*
X181126Y90075D01*
X180374Y89641D01*
X179759Y89026D01*
X179355Y88326D01*
X27849D01*
X25991Y90184D01*
X26200Y90965D01*
Y91834D01*
X25975Y92674D01*
X25541Y93426D01*
X24926Y94041D01*
X24174Y94475D01*
X23335Y94700D01*
D02*
G37*
G36*
X311137Y87000D02*
X306700D01*
Y82563D01*
X311137D01*
Y87000D01*
D02*
G37*
G36*
X305700D02*
X301263D01*
Y82563D01*
X305700D01*
Y87000D01*
D02*
G37*
G36*
X76235Y180400D02*
X75366D01*
X74526Y180175D01*
X73774Y179741D01*
X73159Y179126D01*
X72725Y178374D01*
X72500Y177534D01*
Y176666D01*
X72725Y175826D01*
X73159Y175074D01*
X73774Y174459D01*
X74526Y174025D01*
X75366Y173800D01*
X76235D01*
X77074Y174025D01*
X77826Y174459D01*
X78441Y175074D01*
X78698Y175520D01*
X112645D01*
X210633Y77532D01*
X210500Y77034D01*
Y76165D01*
X210725Y75326D01*
X211159Y74574D01*
X211774Y73959D01*
X212526Y73525D01*
X213366Y73300D01*
X214234D01*
X215074Y73525D01*
X215826Y73959D01*
X216441Y74574D01*
X216875Y75326D01*
X217100Y76165D01*
Y77034D01*
X216875Y77874D01*
X216441Y78626D01*
X215826Y79241D01*
X215074Y79675D01*
X214234Y79900D01*
X213366D01*
X212868Y79767D01*
X114418Y178217D01*
X113905Y178560D01*
X113300Y178680D01*
X78698D01*
X78441Y179126D01*
X77826Y179741D01*
X77074Y180175D01*
X76235Y180400D01*
D02*
G37*
G36*
X233934Y74500D02*
X233066D01*
X232226Y74275D01*
X231474Y73841D01*
X230859Y73226D01*
X230425Y72474D01*
X230200Y71635D01*
Y70766D01*
X230425Y69926D01*
X230859Y69174D01*
X231474Y68559D01*
X231774Y68386D01*
Y32268D01*
X231426Y32175D01*
X230674Y31741D01*
X230059Y31126D01*
X229625Y30374D01*
X229400Y29534D01*
Y28666D01*
X229625Y27826D01*
X230059Y27074D01*
X230674Y26459D01*
X231426Y26025D01*
X232265Y25800D01*
X233135D01*
X233974Y26025D01*
X234726Y26459D01*
X235341Y27074D01*
X235775Y27826D01*
X236000Y28666D01*
Y29534D01*
X235775Y30374D01*
X235341Y31126D01*
X234726Y31741D01*
X234425Y31914D01*
Y68032D01*
X234774Y68125D01*
X235526Y68559D01*
X236141Y69174D01*
X236575Y69926D01*
X236800Y70766D01*
Y71635D01*
X236575Y72474D01*
X236141Y73226D01*
X235526Y73841D01*
X234774Y74275D01*
X233934Y74500D01*
D02*
G37*
G36*
X305154Y20174D02*
X303446D01*
X301770Y19841D01*
X300191Y19187D01*
X298771Y18237D01*
X297563Y17029D01*
X296613Y15609D01*
X295959Y14030D01*
X295626Y12354D01*
Y10646D01*
X295959Y8970D01*
X296613Y7391D01*
X297563Y5971D01*
X298771Y4763D01*
X300191Y3813D01*
X301770Y3159D01*
X303446Y2826D01*
X305154D01*
X306830Y3159D01*
X308409Y3813D01*
X309829Y4763D01*
X311037Y5971D01*
X311987Y7391D01*
X312641Y8970D01*
X312974Y10646D01*
Y12354D01*
X312641Y14030D01*
X311987Y15609D01*
X311037Y17029D01*
X309829Y18237D01*
X308409Y19187D01*
X306830Y19841D01*
X305154Y20174D01*
D02*
G37*
G36*
X10954D02*
X9246D01*
X7570Y19841D01*
X5991Y19187D01*
X4571Y18237D01*
X3362Y17029D01*
X2413Y15609D01*
X1759Y14030D01*
X1426Y12354D01*
Y10646D01*
X1759Y8970D01*
X2413Y7391D01*
X3362Y5971D01*
X4571Y4763D01*
X5991Y3813D01*
X7570Y3159D01*
X9246Y2826D01*
X10954D01*
X12630Y3159D01*
X14209Y3813D01*
X15629Y4763D01*
X16838Y5971D01*
X17787Y7391D01*
X18441Y8970D01*
X18774Y10646D01*
Y12354D01*
X18441Y14030D01*
X17787Y15609D01*
X16838Y17029D01*
X15629Y18237D01*
X14209Y19187D01*
X12630Y19841D01*
X10954Y20174D01*
D02*
G37*
%LPD*%
D12*
X283469Y90800D02*
X291956Y99287D01*
X255800Y90800D02*
X283469D01*
X194000Y64300D02*
Y74900D01*
Y64300D02*
X209400Y48900D01*
X233100Y29500D02*
Y70800D01*
X232700Y29100D02*
X233100Y29500D01*
Y70800D02*
X233500Y71200D01*
X42400Y107600D02*
X131400D01*
X41800Y108200D02*
X42400Y107600D01*
X131400D02*
X145900Y122100D01*
X168989Y82900D02*
X169689Y82200D01*
X22200Y81000D02*
X23282D01*
X169689Y82200D02*
X190800D01*
X25182Y82900D02*
X168989D01*
X23282Y81000D02*
X25182Y82900D01*
X27300Y87000D02*
X182400D01*
X22900Y91400D02*
X27300Y87000D01*
X142300Y70100D02*
X151300Y79100D01*
X142300Y61600D02*
Y70100D01*
D31*
X306200Y87500D02*
D03*
D62*
X112500Y192500D02*
X179900D01*
X221600Y141100D02*
Y150800D01*
X179900Y192500D02*
X221600Y150800D01*
X220500Y127800D02*
X251300Y158600D01*
X220500Y98300D02*
Y127800D01*
X166300Y43600D02*
X212200D01*
X220500Y51900D02*
Y98300D01*
X212200Y43600D02*
X220500Y51900D01*
X22600Y102400D02*
X136400D01*
X140500Y106500D01*
X75800Y177100D02*
X113300D01*
X213800Y76600D01*
X175300Y16100D02*
Y34600D01*
X166300Y43600D02*
X175300Y34600D01*
D63*
X306006Y136332D02*
D03*
Y162317D02*
D03*
D64*
X221600Y141100D02*
D03*
X112500Y192500D02*
D03*
X291956Y99287D02*
D03*
X255800Y90800D02*
D03*
X209400Y48900D02*
D03*
X194000Y74900D02*
D03*
X232700Y29100D02*
D03*
X233500Y71200D02*
D03*
X220500Y98300D02*
D03*
X41800Y108200D02*
D03*
X145900Y122100D02*
D03*
X140500Y106500D02*
D03*
X22200Y81000D02*
D03*
X190800Y82200D02*
D03*
X182400Y87000D02*
D03*
X22900Y91400D02*
D03*
X22600Y102400D02*
D03*
X75800Y177100D02*
D03*
X213800Y76600D02*
D03*
X251300Y158600D02*
D03*
X175300Y16100D02*
D03*
X166300Y43600D02*
D03*
X142300Y61600D02*
D03*
X151300Y79100D02*
D03*
M02*
