G04*
G04 #@! TF.GenerationSoftware,Altium Limited,Altium Designer,22.0.2 (36)*
G04*
G04 Layer_Color=16711935*
%FSLAX25Y25*%
%MOIN*%
G70*
G04*
G04 #@! TF.SameCoordinates,5FA20498-FCA4-4C69-A915-C1027814B975*
G04*
G04*
G04 #@! TF.FilePolarity,Negative*
G04*
G01*
G75*
%ADD53R,0.08674X0.08674*%
%ADD59C,0.00800*%
%ADD60O,0.07099X0.04343*%
%ADD61C,0.05800*%
D53*
X306200Y87500D02*
D03*
D59*
X304300Y11500D02*
D03*
X10100D02*
D03*
Y233400D02*
D03*
X304300D02*
D03*
D60*
X306006Y136332D02*
D03*
Y162317D02*
D03*
D61*
X221600Y141100D02*
D03*
X112500Y192500D02*
D03*
X291956Y99287D02*
D03*
X255800Y90800D02*
D03*
X209400Y48900D02*
D03*
X194000Y74900D02*
D03*
X232700Y29100D02*
D03*
X233500Y71200D02*
D03*
X220500Y98300D02*
D03*
X41800Y108200D02*
D03*
X145900Y122100D02*
D03*
X140500Y106500D02*
D03*
X22200Y81000D02*
D03*
X190800Y82200D02*
D03*
X182400Y87000D02*
D03*
X22900Y91400D02*
D03*
X22600Y102400D02*
D03*
X75800Y177100D02*
D03*
X213800Y76600D02*
D03*
X251300Y158600D02*
D03*
X175300Y16100D02*
D03*
X166300Y43600D02*
D03*
X142300Y61600D02*
D03*
X151300Y79100D02*
D03*
M02*
