G04*
G04 #@! TF.GenerationSoftware,Altium Limited,Altium Designer,22.0.2 (36)*
G04*
G04 Layer_Color=2752767*
%FSLAX25Y25*%
%MOIN*%
G70*
G04*
G04 #@! TF.SameCoordinates,5FA20498-FCA4-4C69-A915-C1027814B975*
G04*
G04*
G04 #@! TF.FilePolarity,Positive*
G04*
G01*
G75*
%ADD65C,0.00200*%
%ADD66C,0.00267*%
D65*
X305400Y86700D02*
Y88300D01*
X307000D01*
Y86700D01*
X305400D01*
X306006Y135532D02*
X305206Y137132D01*
X306806D01*
X306006Y135532D01*
Y161516D02*
X305206Y163117D01*
X306806D01*
X306006Y161516D01*
X221600Y140300D02*
X222000Y140700D01*
X222400D01*
X222000Y141100D01*
X222400Y141500D01*
X222000D01*
X221600Y141900D01*
X221200Y141500D01*
X220800D01*
X221200Y141100D01*
X220800Y140700D01*
X221200D01*
X221600Y140300D01*
X112500Y191700D02*
X112900Y192100D01*
X113300D01*
X112900Y192500D01*
X113300Y192900D01*
X112900D01*
X112500Y193300D01*
X112100Y192900D01*
X111700D01*
X112100Y192500D01*
X111700Y192100D01*
X112100D01*
X112500Y191700D01*
X291956Y98487D02*
X292356Y98887D01*
X292756D01*
X292356Y99287D01*
X292756Y99687D01*
X292356D01*
X291956Y100087D01*
X291556Y99687D01*
X291156D01*
X291556Y99287D01*
X291156Y98887D01*
X291556D01*
X291956Y98487D01*
X255800Y90000D02*
X256200Y90400D01*
X256600D01*
X256200Y90800D01*
X256600Y91200D01*
X256200D01*
X255800Y91600D01*
X255400Y91200D01*
X255000D01*
X255400Y90800D01*
X255000Y90400D01*
X255400D01*
X255800Y90000D01*
X209400Y48100D02*
X209800Y48500D01*
X210200D01*
X209800Y48900D01*
X210200Y49300D01*
X209800D01*
X209400Y49700D01*
X209000Y49300D01*
X208600D01*
X209000Y48900D01*
X208600Y48500D01*
X209000D01*
X209400Y48100D01*
X194000Y74100D02*
X194400Y74500D01*
X194800D01*
X194400Y74900D01*
X194800Y75300D01*
X194400D01*
X194000Y75700D01*
X193600Y75300D01*
X193200D01*
X193600Y74900D01*
X193200Y74500D01*
X193600D01*
X194000Y74100D01*
X232700Y28300D02*
X233100Y28700D01*
X233500D01*
X233100Y29100D01*
X233500Y29500D01*
X233100D01*
X232700Y29900D01*
X232300Y29500D01*
X231900D01*
X232300Y29100D01*
X231900Y28700D01*
X232300D01*
X232700Y28300D01*
X233500Y70400D02*
X233900Y70800D01*
X234300D01*
X233900Y71200D01*
X234300Y71600D01*
X233900D01*
X233500Y72000D01*
X233100Y71600D01*
X232700D01*
X233100Y71200D01*
X232700Y70800D01*
X233100D01*
X233500Y70400D01*
X220500Y97500D02*
X220900Y97900D01*
X221300D01*
X220900Y98300D01*
X221300Y98700D01*
X220900D01*
X220500Y99100D01*
X220100Y98700D01*
X219700D01*
X220100Y98300D01*
X219700Y97900D01*
X220100D01*
X220500Y97500D01*
X41800Y107400D02*
X42200Y107800D01*
X42600D01*
X42200Y108200D01*
X42600Y108600D01*
X42200D01*
X41800Y109000D01*
X41400Y108600D01*
X41000D01*
X41400Y108200D01*
X41000Y107800D01*
X41400D01*
X41800Y107400D01*
X145900Y121300D02*
X146300Y121700D01*
X146700D01*
X146300Y122100D01*
X146700Y122500D01*
X146300D01*
X145900Y122900D01*
X145500Y122500D01*
X145100D01*
X145500Y122100D01*
X145100Y121700D01*
X145500D01*
X145900Y121300D01*
X140500Y105700D02*
X140900Y106100D01*
X141300D01*
X140900Y106500D01*
X141300Y106900D01*
X140900D01*
X140500Y107300D01*
X140100Y106900D01*
X139700D01*
X140100Y106500D01*
X139700Y106100D01*
X140100D01*
X140500Y105700D01*
X22200Y80200D02*
X22600Y80600D01*
X23000D01*
X22600Y81000D01*
X23000Y81400D01*
X22600D01*
X22200Y81800D01*
X21800Y81400D01*
X21400D01*
X21800Y81000D01*
X21400Y80600D01*
X21800D01*
X22200Y80200D01*
X190800Y81400D02*
X191200Y81800D01*
X191600D01*
X191200Y82200D01*
X191600Y82600D01*
X191200D01*
X190800Y83000D01*
X190400Y82600D01*
X190000D01*
X190400Y82200D01*
X190000Y81800D01*
X190400D01*
X190800Y81400D01*
X182400Y86200D02*
X182800Y86600D01*
X183200D01*
X182800Y87000D01*
X183200Y87400D01*
X182800D01*
X182400Y87800D01*
X182000Y87400D01*
X181600D01*
X182000Y87000D01*
X181600Y86600D01*
X182000D01*
X182400Y86200D01*
X22900Y90600D02*
X23300Y91000D01*
X23700D01*
X23300Y91400D01*
X23700Y91800D01*
X23300D01*
X22900Y92200D01*
X22500Y91800D01*
X22100D01*
X22500Y91400D01*
X22100Y91000D01*
X22500D01*
X22900Y90600D01*
X22600Y101600D02*
X23000Y102000D01*
X23400D01*
X23000Y102400D01*
X23400Y102800D01*
X23000D01*
X22600Y103200D01*
X22200Y102800D01*
X21800D01*
X22200Y102400D01*
X21800Y102000D01*
X22200D01*
X22600Y101600D01*
X75800Y176300D02*
X76200Y176700D01*
X76600D01*
X76200Y177100D01*
X76600Y177500D01*
X76200D01*
X75800Y177900D01*
X75400Y177500D01*
X75000D01*
X75400Y177100D01*
X75000Y176700D01*
X75400D01*
X75800Y176300D01*
X213800Y75800D02*
X214200Y76200D01*
X214600D01*
X214200Y76600D01*
X214600Y77000D01*
X214200D01*
X213800Y77400D01*
X213400Y77000D01*
X213000D01*
X213400Y76600D01*
X213000Y76200D01*
X213400D01*
X213800Y75800D01*
X251300Y157800D02*
X251700Y158200D01*
X252100D01*
X251700Y158600D01*
X252100Y159000D01*
X251700D01*
X251300Y159400D01*
X250900Y159000D01*
X250500D01*
X250900Y158600D01*
X250500Y158200D01*
X250900D01*
X251300Y157800D01*
X175300Y15300D02*
X175700Y15700D01*
X176100D01*
X175700Y16100D01*
X176100Y16500D01*
X175700D01*
X175300Y16900D01*
X174900Y16500D01*
X174500D01*
X174900Y16100D01*
X174500Y15700D01*
X174900D01*
X175300Y15300D01*
X166300Y42800D02*
X166700Y43200D01*
X167100D01*
X166700Y43600D01*
X167100Y44000D01*
X166700D01*
X166300Y44400D01*
X165900Y44000D01*
X165500D01*
X165900Y43600D01*
X165500Y43200D01*
X165900D01*
X166300Y42800D01*
X142300Y60800D02*
X142700Y61200D01*
X143100D01*
X142700Y61600D01*
X143100Y62000D01*
X142700D01*
X142300Y62400D01*
X141900Y62000D01*
X141500D01*
X141900Y61600D01*
X141500Y61200D01*
X141900D01*
X142300Y60800D01*
X151300Y78300D02*
X151700Y78700D01*
X152100D01*
X151700Y79100D01*
X152100Y79500D01*
X151700D01*
X151300Y79900D01*
X150900Y79500D01*
X150500D01*
X150900Y79100D01*
X150500Y78700D01*
X150900D01*
X151300Y78300D01*
D66*
X305100Y11500D02*
G03*
X305100Y11500I-800J0D01*
G01*
X10900D02*
G03*
X10900Y11500I-800J0D01*
G01*
Y233400D02*
G03*
X10900Y233400I-800J0D01*
G01*
X305100D02*
G03*
X305100Y233400I-800J0D01*
G01*
M02*
