G04*
G04 #@! TF.GenerationSoftware,Altium Limited,Altium Designer,22.0.2 (36)*
G04*
G04 Layer_Color=8388736*
%FSLAX25Y25*%
%MOIN*%
G70*
G04*
G04 #@! TF.SameCoordinates,5FA20498-FCA4-4C69-A915-C1027814B975*
G04*
G04*
G04 #@! TF.FilePolarity,Negative*
G04*
G01*
G75*
%ADD37R,0.09068X0.22847*%
%ADD38R,0.06312X0.05918*%
%ADD39O,0.01981X0.05524*%
%ADD40O,0.05524X0.01981*%
%ADD41R,0.06115X0.05328*%
%ADD42R,0.05328X0.06115*%
%ADD43R,0.05918X0.06312*%
%ADD44R,0.03740X0.01772*%
%ADD45R,0.01772X0.03740*%
%ADD46R,0.11824X0.07099*%
%ADD47R,0.06706X0.07099*%
%ADD48O,0.06115X0.02375*%
%ADD49R,0.02769X0.02650*%
%ADD50R,0.08674X0.08674*%
%ADD51R,0.06693X0.13386*%
%ADD52R,0.06693X0.05118*%
%ADD53R,0.08674X0.08674*%
%ADD54R,0.07887X0.08280*%
G04:AMPARAMS|DCode=55|XSize=70.99mil|YSize=63.12mil|CornerRadius=17.78mil|HoleSize=0mil|Usage=FLASHONLY|Rotation=270.000|XOffset=0mil|YOffset=0mil|HoleType=Round|Shape=RoundedRectangle|*
%AMROUNDEDRECTD55*
21,1,0.07099,0.02756,0,0,270.0*
21,1,0.03543,0.06312,0,0,270.0*
1,1,0.03556,-0.01378,-0.01772*
1,1,0.03556,-0.01378,0.01772*
1,1,0.03556,0.01378,0.01772*
1,1,0.03556,0.01378,-0.01772*
%
%ADD55ROUNDEDRECTD55*%
%ADD56R,0.02769X0.02257*%
%ADD57R,0.04343X0.03556*%
%ADD58O,0.03792X0.05800*%
%ADD59C,0.00800*%
%ADD60O,0.07099X0.04343*%
%ADD61C,0.05800*%
D37*
X114800Y126899D02*
D03*
Y164301D02*
D03*
D38*
X140100Y176000D02*
D03*
Y182299D02*
D03*
X152100Y176000D02*
D03*
Y182299D02*
D03*
X201800Y103100D02*
D03*
Y96801D02*
D03*
X157300Y12899D02*
D03*
Y6600D02*
D03*
X147300Y12899D02*
D03*
Y6600D02*
D03*
X234800Y165750D02*
D03*
X222800D02*
D03*
X211800Y96801D02*
D03*
X222800Y159450D02*
D03*
X211800Y103100D02*
D03*
X234800Y159450D02*
D03*
D39*
X162036Y163738D02*
D03*
X165973D02*
D03*
X167942D02*
D03*
X169910D02*
D03*
X171879D02*
D03*
X173847D02*
D03*
X175816D02*
D03*
X177784D02*
D03*
X179753D02*
D03*
X181721D02*
D03*
X183690D02*
D03*
X185658D02*
D03*
X187627D02*
D03*
X189595D02*
D03*
X191564D02*
D03*
Y118462D02*
D03*
X187627D02*
D03*
X185658D02*
D03*
X183690D02*
D03*
X181721D02*
D03*
X179753D02*
D03*
X177784D02*
D03*
X175816D02*
D03*
X173847D02*
D03*
X171879D02*
D03*
X169910D02*
D03*
X167942D02*
D03*
X165973D02*
D03*
X162036D02*
D03*
X164005D02*
D03*
X189595D02*
D03*
X164005Y163738D02*
D03*
D40*
X199438Y155864D02*
D03*
Y151927D02*
D03*
Y149958D02*
D03*
Y147990D02*
D03*
Y146021D02*
D03*
Y144053D02*
D03*
Y142084D02*
D03*
Y140116D02*
D03*
Y138147D02*
D03*
Y136179D02*
D03*
Y134210D02*
D03*
Y132242D02*
D03*
Y130273D02*
D03*
Y128305D02*
D03*
Y126336D02*
D03*
X154162D02*
D03*
Y128305D02*
D03*
Y130273D02*
D03*
Y132242D02*
D03*
Y136179D02*
D03*
Y138147D02*
D03*
Y140116D02*
D03*
Y142084D02*
D03*
Y144053D02*
D03*
Y146021D02*
D03*
Y147990D02*
D03*
Y149958D02*
D03*
Y151927D02*
D03*
Y153895D02*
D03*
Y155864D02*
D03*
Y134210D02*
D03*
X199438Y153895D02*
D03*
D41*
X217875Y197155D02*
D03*
Y204045D02*
D03*
X189800Y65895D02*
D03*
Y59005D02*
D03*
X165700Y207690D02*
D03*
Y200800D02*
D03*
X198800Y203545D02*
D03*
Y196655D02*
D03*
X184800Y203545D02*
D03*
Y196655D02*
D03*
X232875Y204490D02*
D03*
Y197600D02*
D03*
D42*
X262800Y151100D02*
D03*
X269690D02*
D03*
Y142100D02*
D03*
X262800D02*
D03*
X209245Y65600D02*
D03*
X202355D02*
D03*
X234410Y119600D02*
D03*
X241300D02*
D03*
X260690Y100100D02*
D03*
X253800D02*
D03*
D43*
X200650Y85100D02*
D03*
X206950D02*
D03*
X155650Y27600D02*
D03*
X161950D02*
D03*
X160800Y104600D02*
D03*
X154501D02*
D03*
X137650Y114500D02*
D03*
X131350D02*
D03*
X131500Y124000D02*
D03*
X169599Y62600D02*
D03*
X137799Y124000D02*
D03*
X163300Y62600D02*
D03*
D44*
X142524Y48053D02*
D03*
Y46084D02*
D03*
Y44116D02*
D03*
Y42147D02*
D03*
Y40179D02*
D03*
X158076Y48053D02*
D03*
Y46084D02*
D03*
Y44116D02*
D03*
Y42147D02*
D03*
Y40179D02*
D03*
X142524Y50021D02*
D03*
X158076D02*
D03*
D45*
X145379Y37324D02*
D03*
X147347D02*
D03*
X149316D02*
D03*
X151284D02*
D03*
X155221D02*
D03*
Y52876D02*
D03*
X153253D02*
D03*
X151284D02*
D03*
X149316D02*
D03*
X147347D02*
D03*
X145379D02*
D03*
X153253Y37324D02*
D03*
D46*
X49800Y159100D02*
D03*
X66729D02*
D03*
X49800Y132600D02*
D03*
X66729D02*
D03*
D47*
X254587Y225800D02*
D03*
X227587D02*
D03*
X213413D02*
D03*
X240413D02*
D03*
D48*
X295475Y154443D02*
D03*
Y151883D02*
D03*
Y144206D02*
D03*
Y146765D02*
D03*
Y149324D02*
D03*
D49*
X240375Y99100D02*
D03*
D50*
X75000Y225400D02*
D03*
X234300Y11000D02*
D03*
X218000D02*
D03*
X6000Y69200D02*
D03*
Y80800D02*
D03*
Y91600D02*
D03*
Y102500D02*
D03*
X63200Y225400D02*
D03*
D51*
X6302Y147300D02*
D03*
D52*
X31498Y138245D02*
D03*
Y147300D02*
D03*
Y156355D02*
D03*
D53*
X306200Y100200D02*
D03*
Y87500D02*
D03*
D54*
X306006Y144600D02*
D03*
Y154049D02*
D03*
D55*
X296361Y136726D02*
D03*
Y161923D02*
D03*
D56*
X237225Y100675D02*
D03*
Y97525D02*
D03*
D57*
X62800Y185200D02*
D03*
Y192680D02*
D03*
X54926Y188940D02*
D03*
D58*
X147900Y218971D02*
D03*
X142900D02*
D03*
X147900Y202829D02*
D03*
X142900D02*
D03*
D59*
X304300Y11500D02*
D03*
X10100D02*
D03*
Y233400D02*
D03*
X304300D02*
D03*
D60*
X306006Y136332D02*
D03*
Y162317D02*
D03*
D61*
X221600Y141100D02*
D03*
X112500Y192500D02*
D03*
X291956Y99287D02*
D03*
X255800Y90800D02*
D03*
X209400Y48900D02*
D03*
X194000Y74900D02*
D03*
X232700Y29100D02*
D03*
X233500Y71200D02*
D03*
X220500Y98300D02*
D03*
X41800Y108200D02*
D03*
X145900Y122100D02*
D03*
X140500Y106500D02*
D03*
X22200Y81000D02*
D03*
X190800Y82200D02*
D03*
X182400Y87000D02*
D03*
X22900Y91400D02*
D03*
X22600Y102400D02*
D03*
X75800Y177100D02*
D03*
X213800Y76600D02*
D03*
X251300Y158600D02*
D03*
X175300Y16100D02*
D03*
X166300Y43600D02*
D03*
X142300Y61600D02*
D03*
X151300Y79100D02*
D03*
M02*
